<svg width="44.816" height="25.632" fill="none" xmlns="http://www.w3.org/2000/svg"><path id="Air" d="M27.203 2.448c0 .72.215 1.296.684 1.764.468.468 1.043.684 1.765.684.684 0 1.258-.216 1.727-.684.469-.468.719-1.044.719-1.764 0-.684-.25-1.26-.72-1.728A2.364 2.364 0 0 0 29.653 0c-.722 0-1.297.252-1.765.72-.469.468-.684 1.044-.684 1.728Zm-5.965 18.756 2.055 4.428h3.563L15.12.432h-3.387L0 25.632h3.563l2.054-4.428h15.621Zm-14.11-3.24L13.43 4.356l6.297 13.608H7.129Zm30.49-10.332v2.7c.542-1.008 1.26-1.764 2.16-2.304.902-.54 1.98-.828 3.277-.828.289 0 .613.036.898.072l.863.108v3.276c-.32-.072-.609-.108-.898-.144a6.987 6.987 0 0 0-.898-.072c-1.008 0-1.876.18-2.52.504a4.356 4.356 0 0 0-1.656 1.367c-.434.613-.723 1.333-.867 2.16-.18.865-.25 1.765-.25 2.773v8.388h-3.098v-18h2.988Zm-6.419 0h-3.097v18h3.097v-18Z" fill="#FFF" fill-opacity="1" fill-rule="evenodd"/></svg>